<svg version="1.1" id="Layer_1" xmlns="http://www.w3.org/2000/svg" xmlns:xlink="http://www.w3.org/1999/xlink" x="0px" y="0px"
	 width="100%" viewBox="0 0 500 500" enable-background="new 0 0 500 500" xml:space="preserve">
<path fill="#000000" opacity="1.000000" stroke="none" 
	d="
M228.000000,501.000000 
	C152.000015,501.000000 76.500038,501.000000 1.000041,501.000000 
	C1.000027,334.333405 1.000027,167.666779 1.000013,1.000130 
	C167.666565,1.000087 334.333130,1.000087 500.999756,1.000043 
	C500.999847,167.666534 500.999847,334.333069 500.999939,500.999817 
	C410.166656,501.000000 319.333344,501.000000 228.000000,501.000000 
M396.955597,205.565292 
	C402.449036,199.073914 408.679962,193.063721 413.290894,185.996552 
	C424.883759,168.228104 426.538452,148.807190 421.149048,128.481552 
	C416.868378,112.337433 407.490082,99.860283 394.403870,89.915230 
	C376.297424,76.155014 355.757446,72.968895 334.108307,77.564590 
	C313.430450,81.954124 297.831482,94.335335 287.374084,112.472237 
	C279.317200,126.445694 275.977142,141.751648 278.917969,158.016800 
	C279.352325,160.419067 279.274628,162.573303 276.363861,164.006973 
	C253.550369,175.243683 230.840897,186.691925 207.997040,197.865753 
	C206.650116,198.524582 204.009918,197.935684 202.677795,196.961609 
	C198.976822,194.255371 195.899475,190.673828 192.130310,188.087143 
	C174.746872,176.157135 155.323563,173.484467 135.070709,177.190842 
	C123.851646,179.244003 113.479408,184.306213 104.815422,191.832550 
	C90.481636,204.284180 81.086433,219.431396 78.752792,238.937668 
	C77.067909,253.021164 78.699280,266.286102 84.540070,278.910522 
	C92.594467,296.319519 105.576942,309.051636 123.576660,316.052704 
	C142.614731,323.457672 161.624710,323.259552 180.589066,315.135864 
	C190.785233,310.768127 198.947586,303.974152 206.531952,296.157104 
	C207.527100,295.131409 210.219635,294.387177 211.281967,294.992920 
	C234.240524,308.083679 257.078949,321.385132 280.315643,334.863495 
	C275.360107,355.545044 277.933044,375.201141 289.697845,393.205597 
	C301.561523,411.361359 318.458069,422.809021 339.749573,425.624969 
	C370.331940,429.669647 401.465363,418.344666 417.779205,383.063354 
	C431.064423,354.331879 424.827667,317.075592 393.361359,293.958191 
	C378.503998,283.042908 361.458557,279.434784 343.314087,281.046356 
	C323.360809,282.818573 307.208435,292.105804 294.285736,307.432556 
	C288.406342,303.810120 282.995331,300.279663 277.402069,297.066559 
	C259.774323,286.940002 242.048752,276.983154 224.470184,266.772705 
	C223.204147,266.037323 221.952744,263.660767 222.157974,262.261993 
	C223.934616,250.153244 223.520782,238.215393 220.176712,226.519119 
	C243.647614,214.672028 266.973206,202.898270 290.661346,190.941513 
	C292.756378,193.425827 294.820129,196.182419 297.197510,198.634964 
	C304.776886,206.454086 313.847443,212.157455 323.834473,216.303345 
	C336.720795,221.652832 350.119202,221.985855 363.809265,220.133820 
	C376.080536,218.473755 386.445648,212.817398 396.955597,205.565292 
z"/>
<path fill="#90E0EF" opacity="1.000000" stroke="none" 
	d="
M396.687378,205.809265 
	C386.445648,212.817398 376.080536,218.473755 363.809265,220.133820 
	C350.119202,221.985855 336.720795,221.652832 323.834473,216.303345 
	C313.847443,212.157455 304.776886,206.454086 297.197510,198.634964 
	C294.820129,196.182419 292.756378,193.425827 290.661346,190.941513 
	C266.973206,202.898270 243.647614,214.672028 220.176712,226.519119 
	C223.520782,238.215393 223.934616,250.153244 222.157974,262.261993 
	C221.952744,263.660767 223.204147,266.037323 224.470184,266.772705 
	C242.048752,276.983154 259.774323,286.940002 277.402069,297.066559 
	C282.995331,300.279663 288.406342,303.810120 294.285736,307.432556 
	C307.208435,292.105804 323.360809,282.818573 343.314087,281.046356 
	C361.458557,279.434784 378.503998,283.042908 393.361359,293.958191 
	C424.827667,317.075592 431.064423,354.331879 417.779205,383.063354 
	C401.465363,418.344666 370.331940,429.669647 339.749573,425.624969 
	C318.458069,422.809021 301.561523,411.361359 289.697845,393.205597 
	C277.933044,375.201141 275.360107,355.545044 280.315643,334.863495 
	C257.078949,321.385132 234.240524,308.083679 211.281967,294.992920 
	C210.219635,294.387177 207.527100,295.131409 206.531952,296.157104 
	C198.947586,303.974152 190.785233,310.768127 180.589066,315.135864 
	C161.624710,323.259552 142.614731,323.457672 123.576660,316.052704 
	C105.576942,309.051636 92.594467,296.319519 84.540070,278.910522 
	C78.699280,266.286102 77.067909,253.021164 78.752792,238.937668 
	C81.086433,219.431396 90.481636,204.284180 104.815422,191.832550 
	C113.479408,184.306213 123.851646,179.244003 135.070709,177.190842 
	C155.323563,173.484467 174.746872,176.157135 192.130310,188.087143 
	C195.899475,190.673828 198.976822,194.255371 202.677795,196.961609 
	C204.009918,197.935684 206.650116,198.524582 207.997040,197.865753 
	C230.840897,186.691925 253.550369,175.243683 276.363861,164.006973 
	C279.274628,162.573303 279.352325,160.419067 278.917969,158.016800 
	C275.977142,141.751648 279.317200,126.445694 287.374084,112.472237 
	C297.831482,94.335335 313.430450,81.954124 334.108307,77.564590 
	C355.757446,72.968895 376.297424,76.155014 394.403870,89.915230 
	C407.490082,99.860283 416.868378,112.337433 421.149048,128.481552 
	C426.538452,148.807190 424.883759,168.228104 413.290894,185.996552 
	C408.679962,193.063721 402.449036,199.073914 396.687378,205.809265 
z"/>
</svg>